<svg width="916" height="917" viewBox="0 0 916 917" fill="none" xmlns="http://www.w3.org/2000/svg">
<path d="M20.1647 449.368C9.07725 449.149 0.220459 439.977 0.924512 428.91C7.67113 322.858 51.1257 222.207 124.163 144.445C201.792 61.7948 307.32 10.8793 420.326 1.552C533.332 -7.77529 645.78 25.1488 735.909 93.9526C820.708 158.687 880.077 250.851 904.121 354.362C906.63 365.164 899.397 375.664 888.495 377.697C877.593 379.731 867.156 372.527 864.601 361.735C842.411 267.997 788.436 184.574 711.541 125.874C629.315 63.1027 526.726 33.0655 423.629 41.575C320.532 50.0844 224.257 96.5354 153.435 171.939C87.2052 242.452 47.6385 333.597 41.118 429.704C40.3673 440.768 31.2522 449.586 20.1647 449.368Z" fill="white"/>
<path d="M895.151 432.046C906.221 431.389 915.774 439.834 915.946 450.922C917.623 559.259 880.816 664.941 811.709 748.953C738.341 838.146 633.986 896.327 519.543 911.846C405.1 927.365 289.018 899.075 194.548 832.642C105.563 770.067 41.9408 678.004 14.7069 573.132C11.9195 562.399 18.8787 551.715 29.7241 549.4C40.5695 547.086 51.1897 554.017 54.0223 564.739C79.1122 659.709 136.948 743.043 217.648 799.792C303.835 860.4 409.738 886.209 514.146 872.051C618.555 857.893 713.76 804.813 780.695 723.442C843.367 647.251 876.922 551.524 875.815 453.302C875.69 442.213 884.081 432.703 895.151 432.046Z" fill="white"/>
<path d="M601.322 531.414C616.67 531.414 627.693 523.034 634.594 513.473C640.986 504.618 644.854 493.596 647.519 483.241C652.471 463.994 655.044 439.346 657.425 416.537L657.427 416.521C657.619 414.679 657.81 412.85 658.001 411.036C660.697 385.418 663.398 362.584 668.381 346.193C670.873 337.998 673.36 333.473 675.154 331.342C675.321 331.144 675.466 330.985 675.588 330.86C675.77 330.999 676.045 331.235 676.406 331.621C678.166 333.501 680.668 337.507 683.231 344.852C688.376 359.595 691.39 380.513 693.823 403.961C694.452 410.031 695.046 416.324 695.642 422.643L695.643 422.647C697.217 439.333 698.808 456.2 701.126 469.604C702.716 478.793 704.981 488.626 708.864 496.651C712.387 503.932 721.202 517.33 738.623 517.33C747.484 517.33 756.058 514.733 763.13 511.996C770.457 509.16 778.118 505.38 785.48 501.577C788.901 499.81 792.291 498.024 795.67 496.245C807.541 489.992 819.259 483.82 831.575 478.844C838.854 475.903 852.614 474.45 867.295 474.269C874.091 474.185 880.257 474.372 884.727 474.582C886.952 474.686 888.734 474.795 889.936 474.876C890.536 474.916 890.99 474.949 891.28 474.971L891.416 474.982L891.59 474.996L891.64 475L891.646 475L891.648 475L891.652 475.001C904.014 476.03 914.878 466.897 915.919 454.595C916.961 442.29 907.78 431.474 895.413 430.437L895.191 430.419L895.003 430.404L894.701 430.381C894.288 430.35 893.704 430.307 892.968 430.258C891.496 430.159 889.408 430.032 886.844 429.911C881.734 429.672 874.646 429.454 866.738 429.552C852.01 429.734 830.568 430.984 814.665 437.41C800.01 443.331 785.621 450.92 773.533 457.296L773.525 457.3C770.447 458.923 767.518 460.468 764.772 461.887C757.77 465.503 751.981 468.307 747.093 470.218C746.55 467.994 745.984 465.281 745.42 462.02C743.413 450.417 742.082 436.305 740.584 420.417L740.583 420.412C739.95 413.696 739.287 406.663 738.53 399.369C736.122 376.164 732.755 350.43 725.689 330.183C719.216 311.633 705.241 286 675.253 286C660.356 286 648.75 293.065 640.701 302.625C633.254 311.47 628.591 322.623 625.362 333.244C618.905 354.483 615.885 381.822 613.301 406.378C613.15 407.814 613 409.242 612.851 410.661L612.851 410.663C610.318 434.809 608.067 456.258 603.978 472.149C602.537 477.751 601.093 481.686 599.837 484.32C598.737 482.821 597.315 480.499 595.62 476.935C590.295 465.736 586.061 449.954 581.299 431.354C581.052 430.392 580.804 429.42 580.554 428.441L580.553 428.439C576.308 411.82 571.499 392.995 564.958 378.232C558.883 364.518 546.098 342.335 520.355 342.335C503.367 342.335 491.661 352.199 484.665 363.101C478.154 373.247 474.412 385.971 471.924 398.231C467.244 421.303 465.54 450.997 463.938 478.927L463.935 478.983C463.822 480.958 463.709 482.925 463.595 484.88C461.803 515.785 459.876 544.005 454.937 564.454C452.681 573.79 450.197 579.673 448.042 582.995C447.135 580.845 446.103 577.747 445.101 573.439C441.562 558.23 440.293 537.094 438.934 513.078L438.856 511.706C437.596 489.415 436.189 464.527 431.679 445.145C429.389 435.302 425.817 424.554 419.407 415.841C412.333 406.225 401.316 398.67 386.574 398.67C365.65 398.67 353.219 411.794 346.544 424.291C340.774 435.094 337.537 448.486 335.115 458.506L334.801 459.8C332.014 471.302 329.983 479.087 327.318 484.316C326.874 483.404 326.369 482.264 325.811 480.848C322.533 472.533 320.239 461.609 317.347 447.841L317.344 447.824L317.337 447.79C316.818 445.322 316.281 442.763 315.715 440.112C312.338 424.284 307.895 405.021 299.5 389.488C290.57 372.965 275.205 357.41 250.151 356.436C225.187 355.465 207.75 369.429 196.343 384.986C185.336 399.996 177.82 419.138 172.011 435.679C169.869 441.78 167.976 447.448 166.217 452.717C162.764 463.061 159.822 471.87 156.506 479.411C156.228 480.042 155.959 480.637 155.699 481.196C154.621 478.842 153.384 475.835 151.741 471.842L151.251 470.65C148.299 463.48 143.782 452.605 136.013 443.799C127.158 433.763 114.571 426.838 97.8909 426.838C82.4694 426.838 67.8976 422.585 56.7899 417.989C51.3231 415.727 46.9234 413.476 43.961 411.835C42.4855 411.018 41.3832 410.362 40.7011 409.944C40.3606 409.735 40.1264 409.586 40.0043 409.508L39.9157 409.451C29.6114 402.634 15.6984 405.389 8.80528 415.626C1.89717 425.886 4.65569 439.775 14.9666 446.648L15.2271 446.82C15.3455 446.897 15.4954 446.995 15.676 447.11C16.0372 447.342 16.5216 447.647 17.1232 448.016C18.3255 448.753 20.0015 449.747 22.1021 450.91C26.2917 453.231 32.235 456.261 39.5314 459.281C53.9502 465.247 74.5865 471.558 97.8909 471.558C100.573 471.558 101.188 472.114 102.235 473.301C104.368 475.718 106.451 479.807 109.66 487.601C109.938 488.278 110.234 489.008 110.548 489.782C113.109 496.102 116.866 505.373 122.243 512.786C129.387 522.637 140.833 531.414 157.735 531.414C170.56 531.414 179.701 524.43 185.289 518.045C190.703 511.857 194.652 504.227 197.681 497.339C201.838 487.886 205.886 475.786 209.732 464.29C211.339 459.485 212.91 454.786 214.44 450.43C220.17 434.115 225.905 420.544 232.651 411.344C238.997 402.689 243.815 400.944 248.396 401.122C252.111 401.266 255.531 402.555 259.916 410.668C264.836 419.772 268.238 432.938 271.75 449.399C272.214 451.571 272.683 453.826 273.164 456.138C275.966 469.603 279.171 485.006 283.969 497.178C289.342 510.806 301.182 531.414 326.721 531.414C347.645 531.414 360.077 518.289 366.751 505.793C372.521 494.99 375.758 481.598 378.181 471.578L378.494 470.284C381.089 459.573 383.029 452.086 385.435 446.884C386.216 448.939 387.064 451.671 387.893 455.231C391.431 470.439 392.701 491.576 394.06 515.592L394.137 516.963C395.397 539.254 396.804 564.143 401.314 583.525C403.604 593.368 407.176 604.116 413.586 612.829C420.66 622.445 431.678 630 446.419 630C462.992 630 475.394 621.499 483.567 610.472C491.119 600.283 495.619 587.396 498.637 574.905C504.701 549.802 506.736 517.286 508.466 487.455C508.554 485.924 508.642 484.399 508.73 482.882C510.423 453.55 511.962 426.887 515.981 407.079C517.545 399.367 519.263 393.946 520.862 390.365C521.7 391.792 522.697 393.71 523.832 396.271C528.818 407.523 532.806 423.104 537.518 441.507L537.745 442.394C542.223 459.884 547.448 480.192 554.993 496.06C561.959 510.711 575.644 531.414 601.322 531.414Z" fill="white"/>
</svg>
