<svg width="297" height="140" viewBox="0 0 297 140" fill="none" xmlns="http://www.w3.org/2000/svg">
<path fill-rule="evenodd" clip-rule="evenodd" d="M55.2812 0.8125H70.8281V13.2812H79.5V25.2188H70.8281V49.5312C70.8281 51.3247 71.1806 52.3634 71.6552 52.8999C72.0727 53.3718 73.0582 53.7812 75.0312 53.7812C76.485 53.7812 77.7488 53.6751 78.8297 53.4706L80.0156 53.2462V65.4586L79.3081 65.675C76.5559 66.5169 73.7229 66.9375 70.8125 66.9375C65.9043 66.9375 62.0236 65.6971 59.351 63.0504C56.6802 60.4054 55.3782 56.5165 55.2814 51.5664L55.2812 51.5566V25.2188H47.875V13.2812H55.2812V0.8125ZM57.2812 2.8125V15.2812H49.875V23.2188H57.2812V51.537C57.3735 56.1756 58.5869 59.4789 60.7583 61.6293C62.9295 63.7795 66.2207 64.9375 70.8125 64.9375C73.2778 64.9375 75.6779 64.6143 78.0156 63.9684V55.6172C77.0959 55.7274 76.1004 55.7812 75.0312 55.7812C72.9418 55.7812 71.1773 55.3782 70.1573 54.2251C69.1944 53.1366 68.8281 51.4878 68.8281 49.5312V23.2188H77.5V15.2812H68.8281V2.8125H57.2812ZM23.4688 14.3438C17.6075 14.3438 12.9567 15.814 9.42551 18.6683C5.92536 21.492 4.21875 24.9638 4.21875 29.1406C4.21875 32.6981 5.59117 35.6334 8.38972 38.0114C11.2265 40.4219 15.5666 42.288 21.5166 43.5367C25.1597 44.2905 27.9161 45.1743 29.6899 46.2291C31.5974 47.3122 32.6719 48.9112 32.6719 50.9844C32.6719 52.9126 31.8354 54.4998 30.2533 55.6772L30.2501 55.6796C28.6908 56.8305 26.4875 57.3281 23.7969 57.3281C20.8667 57.3281 18.41 56.6525 16.5288 55.1972C14.8412 53.8917 13.8656 52.0876 13.5593 49.875H2.66131C2.84205 52.3433 3.69857 54.6715 5.25287 56.8742C7.01479 59.34 9.44824 61.312 12.5892 62.7787C15.7509 64.2095 19.3862 64.9375 23.5156 64.9375C29.6465 64.9375 34.5501 63.5509 38.3058 60.8607C42.0318 58.1609 43.8438 54.7038 43.8438 50.4219C43.8438 47.3838 43.0083 44.8549 41.3743 42.7786C39.731 40.6904 37.2237 38.989 33.7663 37.7206C31.5184 36.9004 28.729 36.1627 25.3873 35.5129L25.3785 35.5112C21.9812 34.8191 19.4247 33.9944 17.8261 32.9865L17.8153 32.9797L17.8047 32.9727C16.1615 31.8772 15.25 30.3655 15.25 28.4844C15.25 26.5864 16.0128 24.993 17.4886 23.7755C18.9785 22.5463 21.0017 22 23.4219 22C26.215 22 28.4798 22.6716 29.9926 24.219C31.2179 25.4462 31.9148 26.9574 32.1036 28.7031H43.6731C43.4253 24.6322 41.6401 21.3111 38.2745 18.6783L38.2714 18.6758C34.6528 15.8221 29.7526 14.3438 23.4688 14.3438ZM8.16899 17.1123C12.1377 13.9046 17.2679 12.3438 23.4688 12.3438C30.059 12.3438 35.4396 13.8962 39.5083 17.1042C43.6201 20.3213 45.7031 24.5468 45.7031 29.7031V30.7031H30.1562V29.7031C30.1562 28.0028 29.6177 26.6725 28.5741 25.629L28.5654 25.6203C27.5783 24.6084 25.9386 24 23.4219 24C21.2795 24 19.7715 24.4849 18.7614 25.3182C17.7372 26.1632 17.25 27.1949 17.25 28.4844C17.25 29.5999 17.7417 30.5234 18.9035 31.3015C20.1812 32.1033 22.4325 32.8697 25.7733 33.5505C29.1795 34.213 32.0761 34.9749 34.4521 35.8418L34.4538 35.8424C38.1519 37.199 41.0113 39.0833 42.946 41.5417C44.8902 44.0123 45.8438 46.9912 45.8438 50.4219C45.8438 55.3893 43.6875 59.4318 39.4773 62.4817L39.4731 62.4847C35.2916 65.4809 29.9459 66.9375 23.5156 66.9375C19.1472 66.9375 15.2215 66.1662 11.7594 64.5985L11.749 64.5937C8.3311 62.9987 5.61069 60.8161 3.62377 58.0344L3.62053 58.0298C1.63421 55.2159 0.625 52.1571 0.625 48.875V47.875H15.4181L15.4674 48.8231C15.5798 50.9872 16.3627 52.5401 17.7525 53.6153C19.1837 54.7225 21.1645 55.3281 23.7969 55.3281C26.2923 55.3281 27.9947 54.8576 29.0605 54.0718C30.1649 53.2494 30.6719 52.2432 30.6719 50.9844C30.6719 49.7486 30.0938 48.7558 28.6949 47.964L28.6851 47.9585L28.6754 47.9527C27.1991 47.0726 24.7094 46.2396 21.1099 45.4949L21.1071 45.4943C14.9952 44.2118 10.2889 42.2498 7.09465 39.5355C3.86196 36.7885 2.21875 33.3019 2.21875 29.1406C2.21875 24.3174 4.23164 20.2887 8.16899 17.1123ZM106.484 14.3438C101.827 14.3438 97.7727 15.3854 94.2903 17.4389C90.8398 19.4919 88.19 22.3899 86.3348 26.1603C84.4741 29.9416 83.5312 34.2712 83.5312 39.1719V39.7812C83.5312 47.6593 85.6489 53.7671 89.7787 58.2248C93.9371 62.6798 99.5004 64.9375 106.578 64.9375C113.656 64.9375 119.202 62.6799 123.328 58.2276C127.464 53.7339 129.576 47.7492 129.578 40.1696L129.485 36.7359C128.996 29.7548 126.653 24.3244 122.525 20.3449L122.522 20.3424C118.422 16.3616 113.107 14.3438 106.484 14.3438ZM93.2733 15.7168C97.1031 13.4581 101.518 12.3438 106.484 12.3438C113.549 12.3438 119.389 14.513 123.914 18.9063C128.469 23.2977 130.968 29.235 131.482 36.6181L131.483 36.6393L131.578 40.1427V40.1562C131.578 48.1321 129.347 54.6425 124.798 59.5835L124.796 59.5859C120.235 64.508 114.125 66.9375 106.578 66.9375C99.0312 66.9375 92.9073 64.508 88.3158 59.5886L88.3134 59.5859C83.7568 54.6687 81.5312 48.0272 81.5312 39.7812V39.1719C81.5312 34.01 82.5259 29.3709 84.5402 25.2772C86.5596 21.1734 89.4716 17.9781 93.27 15.7187L93.2733 15.7168ZM163.391 14.3438C158.982 14.3438 155.523 16.4386 152.957 20.8324L151.299 23.6721L150.779 15.2812H139.922V64H151.469V31.5938L151.56 31.395C153.374 27.4467 157.19 25.6094 162.547 25.6094C163.712 25.6094 165.01 25.6918 166.438 25.8539L166.598 14.7112C165.594 14.4675 164.526 14.3438 163.391 14.3438ZM152.913 17.3791C155.618 14.0595 159.121 12.3438 163.391 12.3438C164.982 12.3438 166.488 12.5594 167.905 12.9978L168.62 13.2191L168.619 13.2812H185.089L193.763 42.3257L202.395 13.2812H219.079L198.215 73.2337L197.072 75.949L197.066 75.9629C195.489 79.4086 193.371 82.0541 190.685 83.8336C187.996 85.6151 184.804 86.4844 181.156 86.4844C179.086 86.4844 176.991 86.172 174.876 85.5536L174.156 85.3433V73.3051L177.23 73.375C179.72 73.3738 181.396 72.987 182.408 72.3551L182.417 72.3493C183.463 71.7116 184.343 70.6176 185.006 68.9495C185.006 68.9476 185.007 68.9457 185.008 68.9439L186.467 65.1253L168.609 14.0018L168.406 28.1269L167.288 27.9753C165.475 27.7295 163.897 27.6094 162.547 27.6094C157.76 27.6094 154.877 29.1709 153.469 32.0378V66H137.922V13.2812H152.659L152.913 17.3791ZM171.174 15.2812L188.596 65.156L186.872 69.6694L186.867 69.6811C186.093 71.6331 184.976 73.13 183.462 74.0543C181.975 74.9817 179.844 75.375 177.219 75.375H177.207L176.156 75.3511V83.8316C177.854 84.2682 179.52 84.4844 181.156 84.4844C184.477 84.4844 187.269 83.6974 189.581 82.1664C191.891 80.6356 193.787 78.3168 195.241 75.1445L196.347 72.5163L216.265 15.2812H203.887L193.768 49.3305L183.599 15.2812H171.174ZM97.9788 27.6281C99.9884 24.7536 102.864 23.3125 106.484 23.3125C110.132 23.3125 113.038 24.7507 115.081 27.6237C117.09 30.4506 118.031 34.3406 118.031 39.1719C118.031 44.7714 117.106 49.0644 115.074 51.8544L115.07 51.8592C113.026 54.6312 110.156 56.0156 106.578 56.0156C102.912 56.0156 100.002 54.6192 97.9838 51.8009L97.9805 51.7962C96.0002 48.9966 95.0781 45.0723 95.0781 40.1562C95.0781 34.6779 95.9891 30.4428 97.9788 27.6281ZM106.484 25.3125C103.48 25.3125 101.232 26.4644 99.6166 28.7759L99.6133 28.7806C97.9792 31.0909 97.0781 34.8237 97.0781 40.1562C97.0781 44.8633 97.9678 48.3132 99.6113 50.6385C101.218 52.8815 103.495 54.0156 106.578 54.0156C109.562 54.0156 111.816 52.9008 113.459 50.6743C115.113 48.4016 116.031 44.6329 116.031 39.1719C116.031 34.5656 115.129 31.1432 113.451 28.7825C111.805 26.4681 109.524 25.3125 106.484 25.3125Z" fill="black"/>
<path d="M158.422 74.8125V87.2812H167.094V97.2188H158.422V122.531C158.422 124.406 158.781 125.75 159.5 126.562C160.219 127.375 161.594 127.781 163.625 127.781C165.125 127.781 166.453 127.672 167.609 127.453V137.719C164.953 138.531 162.219 138.938 159.406 138.938C149.906 138.938 145.062 134.141 144.875 124.547V97.2188H137.469V87.2812H144.875V74.8125H158.422Z" fill="black"/>
<path d="M204.031 138C203.406 136.781 202.953 135.266 202.672 133.453C199.391 137.109 195.125 138.938 189.875 138.938C184.906 138.938 180.781 137.5 177.5 134.625C174.25 131.75 172.625 128.125 172.625 123.75C172.625 118.375 174.609 114.25 178.578 111.375C182.578 108.5 188.344 107.047 195.875 107.016H202.109V104.109C202.109 101.766 201.5 99.8906 200.281 98.4844C199.094 97.0781 197.203 96.375 194.609 96.375C192.328 96.375 190.531 96.9219 189.219 98.0156C187.938 99.1094 187.297 100.609 187.297 102.516H173.75C173.75 99.5781 174.656 96.8594 176.469 94.3594C178.281 91.8594 180.844 89.9062 184.156 88.5C187.469 87.0625 191.188 86.3438 195.312 86.3438C201.562 86.3438 206.516 87.9219 210.172 91.0781C213.859 94.2031 215.703 98.6094 215.703 104.297V126.281C215.734 131.094 216.406 134.734 217.719 137.203V138H204.031ZM192.828 128.578C194.828 128.578 196.672 128.141 198.359 127.266C200.047 126.359 201.297 125.156 202.109 123.656V114.938H197.047C190.266 114.938 186.656 117.281 186.219 121.969L186.172 122.766C186.172 124.453 186.766 125.844 187.953 126.938C189.141 128.031 190.766 128.578 192.828 128.578Z" fill="black"/>
<path d="M240.406 138H226.812V66H240.406V138Z" fill="black"/>
<path d="M274.953 138.938C267.516 138.938 261.453 136.656 256.766 132.094C252.109 127.531 249.781 121.453 249.781 113.859V112.547C249.781 107.453 250.766 102.906 252.734 98.9062C254.703 94.875 257.484 91.7812 261.078 89.625C264.703 87.4375 268.828 86.3438 273.453 86.3438C280.391 86.3438 285.844 88.5312 289.812 92.9062C293.812 97.2812 295.812 103.484 295.812 111.516V117.047H263.516C263.953 120.359 265.266 123.016 267.453 125.016C269.672 127.016 272.469 128.016 275.844 128.016C281.062 128.016 285.141 126.125 288.078 122.344L294.734 129.797C292.703 132.672 289.953 134.922 286.484 136.547C283.016 138.141 279.172 138.938 274.953 138.938ZM273.406 97.3125C270.719 97.3125 268.531 98.2188 266.844 100.031C265.188 101.844 264.125 104.438 263.656 107.812H282.5V106.734C282.438 103.734 281.625 101.422 280.062 99.7969C278.5 98.1406 276.281 97.3125 273.406 97.3125Z" fill="black"/>
<path fill-rule="evenodd" clip-rule="evenodd" d="M225.812 65H241.406V139H225.812V65ZM227.812 67V137H239.406V67H227.812ZM143.875 73.8125H159.422V86.2812H168.094V98.2188H159.422V122.531C159.422 124.325 159.774 125.363 160.249 125.9C160.666 126.372 161.652 126.781 163.625 126.781C165.079 126.781 166.343 126.675 167.423 126.471L168.609 126.246V138.459L167.902 138.675C165.15 139.517 162.317 139.938 159.406 139.938C154.498 139.938 150.617 138.697 147.945 136.05C145.274 133.405 143.972 129.516 143.875 124.566L143.875 124.557V98.2188H136.469V86.2812H143.875V73.8125ZM145.875 75.8125V88.2812H138.469V96.2188H145.875V124.537C145.967 129.176 147.181 132.479 149.352 134.629C151.523 136.779 154.814 137.938 159.406 137.938C161.872 137.938 164.272 137.614 166.609 136.968V128.617C165.69 128.727 164.694 128.781 163.625 128.781C161.536 128.781 159.771 128.378 158.751 127.225C157.788 126.137 157.422 124.488 157.422 122.531V96.2188H166.094V88.2812H157.422V75.8125H145.875ZM195.312 87.3438C191.305 87.3438 187.725 88.0416 184.554 89.4173L184.547 89.4205C181.374 90.7676 178.968 92.6164 177.278 94.9463C175.793 96.9952 174.97 99.1797 174.788 101.516H186.353C186.552 99.8016 187.279 98.3569 188.569 97.2551L188.579 97.2473C190.123 95.9601 192.173 95.375 194.609 95.375C197.37 95.375 199.595 96.1256 201.041 97.8342C202.452 99.465 203.109 101.592 203.109 104.109V108.016H195.877C188.453 108.047 182.926 109.482 179.163 112.186C175.483 114.853 173.625 118.66 173.625 123.75C173.625 127.84 175.129 131.191 178.161 133.875C181.234 136.566 185.114 137.938 189.875 137.938C194.863 137.938 198.85 136.214 201.928 132.785L203.337 131.215L203.66 133.3C203.887 134.765 204.227 135.993 204.664 137H216.505C215.306 134.366 214.732 130.767 214.703 126.288L214.703 126.281V104.297C214.703 98.8458 212.948 94.7418 209.525 91.841L209.518 91.8351C206.092 88.877 201.395 87.3438 195.312 87.3438ZM183.762 87.5811C187.216 86.0829 191.071 85.3438 195.312 85.3438C201.728 85.3438 206.936 86.9657 210.822 90.318C214.772 93.6671 216.703 98.3746 216.703 104.297V126.278C216.734 131.029 217.402 134.477 218.602 136.734L218.719 136.954V139H203.42L203.141 138.456C202.694 137.585 202.336 136.592 202.059 135.486C198.78 138.458 194.698 139.938 189.875 139.938C184.7 139.938 180.33 138.434 176.841 135.377L176.837 135.374C173.371 132.307 171.625 128.409 171.625 123.75C171.625 118.09 173.735 113.648 177.991 110.565L177.994 110.563C182.231 107.518 188.235 106.047 195.871 106.016L195.875 106.016L201.109 106.016V104.109C201.109 101.942 200.549 100.32 199.526 99.1393L199.517 99.1296C198.588 98.0292 197.034 97.375 194.609 97.375C192.486 97.375 190.944 97.8821 189.864 98.78C188.839 99.6571 188.297 100.861 188.297 102.516V103.516H172.75V102.516C172.75 99.3561 173.73 96.4338 175.659 93.7724C177.594 91.1033 180.312 89.0464 183.762 87.5811ZM273.453 87.3438C268.993 87.3438 265.05 88.3964 261.595 90.4812L261.593 90.4825C258.176 92.5322 255.523 95.4748 253.633 99.3451L253.632 99.3478C251.74 103.192 250.781 107.584 250.781 112.547V113.859C250.781 121.232 253.033 127.035 257.464 131.378C261.939 135.733 267.738 137.938 274.953 137.938C279.042 137.938 282.74 137.166 286.063 135.64C289.124 134.206 291.577 132.276 293.447 129.857L288.104 123.874C285.027 127.31 280.908 129.016 275.844 129.016C272.256 129.016 269.21 127.946 266.784 125.758L266.778 125.754C264.395 123.575 262.988 120.692 262.524 117.178L262.375 116.047H294.812V111.516C294.812 103.644 292.854 97.7147 289.074 93.581L289.072 93.5781C285.326 89.4489 280.162 87.3438 273.453 87.3438ZM260.563 88.7682C264.357 86.4784 268.664 85.3438 273.453 85.3438C280.619 85.3438 286.361 87.6136 290.553 92.2344C294.772 96.8505 296.812 103.326 296.812 111.516V118.047H264.698C265.233 120.622 266.383 122.682 268.126 124.276C270.136 126.086 272.683 127.016 275.844 127.016C280.786 127.016 284.559 125.244 287.288 121.73L288.025 120.783L296.01 129.724L295.551 130.374C293.411 133.403 290.52 135.761 286.909 137.452L286.902 137.456C283.289 139.116 279.301 139.938 274.953 139.938C267.294 139.938 260.968 137.58 256.068 132.81L256.066 132.808C251.186 128.026 248.781 121.674 248.781 113.859V112.547C248.781 107.322 249.792 102.621 251.837 98.465C253.884 94.2744 256.792 91.0305 260.563 88.7682ZM266.112 99.3498C268.006 97.3156 270.468 96.3125 273.406 96.3125C276.477 96.3125 278.988 97.203 280.786 99.1062C282.572 100.965 283.434 103.549 283.5 106.714L283.5 106.724V108.812H262.508L262.666 107.675C263.152 104.175 264.269 101.366 266.106 99.3567L266.112 99.3498ZM267.579 100.709C266.282 102.13 265.347 104.14 264.834 106.812H281.5V106.745C281.439 103.917 280.677 101.879 279.342 100.49L279.335 100.483C278.008 99.0769 276.083 98.3125 273.406 98.3125C270.972 98.3125 269.06 99.1207 267.579 100.709ZM188.709 115.857C190.745 114.535 193.565 113.938 197.047 113.938H203.109V123.91L202.989 124.133C202.072 125.825 200.67 127.16 198.833 128.147L198.826 128.15L198.82 128.153C196.983 129.106 194.98 129.578 192.828 129.578C190.587 129.578 188.695 128.98 187.276 127.673C185.872 126.38 185.172 124.718 185.172 122.766V122.736L185.221 121.893L185.223 121.876C185.467 119.26 186.622 117.212 188.709 115.857ZM187.216 122.045L187.172 122.794C187.178 124.203 187.665 125.313 188.631 126.202C189.586 127.082 190.944 127.578 192.828 127.578C194.674 127.578 196.357 127.176 197.893 126.381C199.342 125.602 200.4 124.603 201.109 123.394V115.938H197.047C193.747 115.938 191.373 116.512 189.799 117.534C188.281 118.52 187.412 119.982 187.216 122.045Z" fill="black"/>
</svg>
