<svg width="300" height="143" viewBox="0 0 300 143" fill="none" xmlns="http://www.w3.org/2000/svg">
<path d="M32.6719 53.9844C32.6719 52.3281 31.8438 51.0312 30.1875 50.0938C28.5625 49.125 25.9375 48.2656 22.3125 47.5156C10.25 44.9844 4.21875 39.8594 4.21875 32.1406C4.21875 27.6406 6.07812 23.8906 9.79688 20.8906C13.5469 17.8594 18.4375 16.3438 24.4688 16.3438C30.9062 16.3438 36.0469 17.8594 39.8906 20.8906C43.7656 23.9219 45.7031 27.8594 45.7031 32.7031H32.1562C32.1562 30.7656 31.5312 29.1719 30.2812 27.9219C29.0312 26.6406 27.0781 26 24.4219 26C22.1406 26 20.375 26.5156 19.125 27.5469C17.875 28.5781 17.25 29.8906 17.25 31.4844C17.25 32.9844 17.9531 34.2031 19.3594 35.1406C20.7969 36.0469 23.2031 36.8438 26.5781 37.5312C29.9531 38.1875 32.7969 38.9375 35.1094 39.7812C42.2656 42.4062 45.8438 46.9531 45.8438 53.4219C45.8438 58.0469 43.8594 61.7969 39.8906 64.6719C35.9219 67.5156 30.7969 68.9375 24.5156 68.9375C20.2656 68.9375 16.4844 68.1875 13.1719 66.6875C9.89062 65.1562 7.3125 63.0781 5.4375 60.4531C3.5625 57.7969 2.625 54.9375 2.625 51.875H15.4688C15.5938 54.2812 16.4844 56.125 18.1406 57.4062C19.7969 58.6875 22.0156 59.3281 24.7969 59.3281C27.3906 59.3281 29.3438 58.8438 30.6562 57.875C32 56.875 32.6719 55.5781 32.6719 53.9844ZM70.8281 4.8125V17.2812H79.5V27.2188H70.8281V52.5312C70.8281 54.4062 71.1875 55.75 71.9062 56.5625C72.625 57.375 74 57.7812 76.0312 57.7812C77.5312 57.7812 78.8594 57.6719 80.0156 57.4531V67.7188C77.3594 68.5312 74.625 68.9375 71.8125 68.9375C62.3125 68.9375 57.4688 64.1406 57.2812 54.5469V27.2188H49.875V17.2812H57.2812V4.8125H70.8281ZM83.5312 42.1719C83.5312 37.1406 84.5 32.6562 86.4375 28.7188C88.375 24.7812 91.1562 21.7344 94.7812 19.5781C98.4375 17.4219 102.672 16.3438 107.484 16.3438C114.328 16.3438 119.906 18.4375 124.219 22.625C128.562 26.8125 130.984 32.5 131.484 39.6875L131.578 43.1562C131.578 50.9375 129.406 57.1875 125.062 61.9062C120.719 66.5938 114.891 68.9375 107.578 68.9375C100.266 68.9375 94.4219 66.5938 90.0469 61.9062C85.7031 57.2188 83.5312 50.8438 83.5312 42.7812V42.1719ZM97.0781 43.1562C97.0781 47.9688 97.9844 51.6562 99.7969 54.2188C101.609 56.75 104.203 58.0156 107.578 58.0156C110.859 58.0156 113.422 56.7656 115.266 54.2656C117.109 51.7344 118.031 47.7031 118.031 42.1719C118.031 37.4531 117.109 33.7969 115.266 31.2031C113.422 28.6094 110.828 27.3125 107.484 27.3125C104.172 27.3125 101.609 28.6094 99.7969 31.2031C97.9844 33.7656 97.0781 37.75 97.0781 43.1562ZM168.422 29.9844C166.578 29.7344 164.953 29.6094 163.547 29.6094C158.422 29.6094 155.062 31.3438 153.469 34.8125V68H139.922V17.2812H152.719L153.094 23.3281C155.812 18.6719 159.578 16.3438 164.391 16.3438C165.891 16.3438 167.297 16.5469 168.609 16.9531L168.422 29.9844ZM194.766 48.8281L204.141 17.2812H218.672L198.281 75.875L197.156 78.5469C194.125 85.1719 189.125 88.4844 182.156 88.4844C180.188 88.4844 178.188 88.1875 176.156 87.5938V77.3281L178.219 77.375C180.781 77.375 182.688 76.9844 183.938 76.2031C185.219 75.4219 186.219 74.125 186.938 72.3125L188.531 68.1406L170.766 17.2812H185.344L194.766 48.8281Z" fill="black"/>
<path d="M159.422 77.8125V90.2812H168.094V100.219H159.422V125.531C159.422 127.406 159.781 128.75 160.5 129.562C161.219 130.375 162.594 130.781 164.625 130.781C166.125 130.781 167.453 130.672 168.609 130.453V140.719C165.953 141.531 163.219 141.938 160.406 141.938C150.906 141.938 146.062 137.141 145.875 127.547V100.219H138.469V90.2812H145.875V77.8125H159.422ZM205.031 141C204.406 139.781 203.953 138.266 203.672 136.453C200.391 140.109 196.125 141.938 190.875 141.938C185.906 141.938 181.781 140.5 178.5 137.625C175.25 134.75 173.625 131.125 173.625 126.75C173.625 121.375 175.609 117.25 179.578 114.375C183.578 111.5 189.344 110.047 196.875 110.016H203.109V107.109C203.109 104.766 202.5 102.891 201.281 101.484C200.094 100.078 198.203 99.375 195.609 99.375C193.328 99.375 191.531 99.9219 190.219 101.016C188.938 102.109 188.297 103.609 188.297 105.516H174.75C174.75 102.578 175.656 99.8594 177.469 97.3594C179.281 94.8594 181.844 92.9062 185.156 91.5C188.469 90.0625 192.188 89.3438 196.312 89.3438C202.562 89.3438 207.516 90.9219 211.172 94.0781C214.859 97.2031 216.703 101.609 216.703 107.297V129.281C216.734 134.094 217.406 137.734 218.719 140.203V141H205.031ZM193.828 131.578C195.828 131.578 197.672 131.141 199.359 130.266C201.047 129.359 202.297 128.156 203.109 126.656V117.938H198.047C191.266 117.938 187.656 120.281 187.219 124.969L187.172 125.766C187.172 127.453 187.766 128.844 188.953 129.938C190.141 131.031 191.766 131.578 193.828 131.578ZM241.406 141H227.812V69H241.406V141ZM275.953 141.938C268.516 141.938 262.453 139.656 257.766 135.094C253.109 130.531 250.781 124.453 250.781 116.859V115.547C250.781 110.453 251.766 105.906 253.734 101.906C255.703 97.875 258.484 94.7812 262.078 92.625C265.703 90.4375 269.828 89.3438 274.453 89.3438C281.391 89.3438 286.844 91.5312 290.812 95.9062C294.812 100.281 296.812 106.484 296.812 114.516V120.047H264.516C264.953 123.359 266.266 126.016 268.453 128.016C270.672 130.016 273.469 131.016 276.844 131.016C282.062 131.016 286.141 129.125 289.078 125.344L295.734 132.797C293.703 135.672 290.953 137.922 287.484 139.547C284.016 141.141 280.172 141.938 275.953 141.938ZM274.406 100.312C271.719 100.312 269.531 101.219 267.844 103.031C266.188 104.844 265.125 107.438 264.656 110.812H283.5V109.734C283.438 106.734 282.625 104.422 281.062 102.797C279.5 101.141 277.281 100.312 274.406 100.312Z" fill="black"/>
</svg>
