<svg width="1673" height="661" viewBox="0 0 1673 661" fill="none" xmlns="http://www.w3.org/2000/svg">
<g filter="url(#filter0_diii)">
<path d="M1087.69 445.321C1115.07 445.321 1134.73 430.389 1147.04 413.353C1158.44 397.572 1165.34 377.931 1170.1 359.479C1178.93 325.182 1183.52 281.26 1187.77 240.614L1187.77 240.586C1188.11 237.304 1188.45 234.043 1188.79 230.811C1193.6 185.162 1198.42 144.471 1207.31 115.262C1211.75 100.66 1216.19 92.5953 1219.39 88.7991C1219.69 88.4455 1219.95 88.163 1220.16 87.9401C1220.49 88.1871 1220.98 88.6087 1221.62 89.2964C1224.76 92.6452 1229.23 99.7843 1233.8 112.874C1242.97 139.145 1248.35 176.421 1252.69 218.204C1253.81 229.02 1254.87 240.235 1255.94 251.495L1255.94 251.502C1258.74 281.237 1261.58 311.293 1265.72 335.179C1268.55 351.552 1272.59 369.075 1279.52 383.375C1285.8 396.35 1301.53 420.225 1332.6 420.225C1348.41 420.225 1363.7 415.597 1376.32 410.72C1389.39 405.667 1403.05 398.93 1416.18 392.154C1422.29 389.005 1428.33 385.823 1434.36 382.652C1455.54 371.509 1476.44 360.511 1498.41 351.643C1511.39 346.403 1535.94 343.813 1562.12 343.49C1574.24 343.341 1585.24 343.675 1593.22 344.048C1597.19 344.234 1600.36 344.428 1602.51 344.572C1603.58 344.644 1604.39 344.704 1604.91 344.743L1605.15 344.762L1605.46 344.786L1605.55 344.793L1605.56 344.794L1605.56 344.794L1605.57 344.795C1627.62 346.63 1647 330.355 1648.86 308.433C1650.71 286.505 1634.34 267.231 1612.28 265.384L1611.88 265.352L1611.55 265.326L1611.01 265.284C1610.27 265.228 1609.23 265.152 1607.92 265.064C1605.29 264.888 1601.57 264.661 1596.99 264.447C1587.88 264.02 1575.23 263.633 1561.13 263.807C1534.86 264.13 1496.61 266.359 1468.24 277.809C1442.1 288.36 1416.44 301.884 1394.87 313.246L1394.86 313.252C1389.37 316.146 1384.14 318.898 1379.25 321.426C1366.76 327.871 1356.43 332.868 1347.71 336.273C1346.74 332.31 1345.73 327.476 1344.73 321.663C1341.15 300.988 1338.77 275.84 1336.1 247.528L1336.1 247.519C1334.97 235.552 1333.79 223.019 1332.44 210.02C1328.14 168.67 1322.14 122.813 1309.53 86.7334C1297.98 53.6777 1273.06 8 1219.57 8C1192.99 8 1172.29 20.5894 1157.93 37.6249C1144.65 53.3866 1136.33 73.2624 1130.57 92.1879C1119.05 130.035 1113.67 178.752 1109.06 222.511C1108.79 225.071 1108.52 227.615 1108.26 230.143L1108.26 230.147C1103.74 273.174 1099.72 311.397 1092.43 339.714C1089.86 349.697 1087.28 356.708 1085.04 361.403C1083.08 358.731 1080.54 354.593 1077.52 348.242C1068.02 328.285 1060.47 300.163 1051.97 267.018C1051.53 265.303 1051.09 263.572 1050.65 261.827L1050.65 261.824C1043.07 232.209 1034.5 198.663 1022.83 172.355C1011.99 147.918 989.185 108.388 943.266 108.388C912.964 108.388 892.083 125.965 879.604 145.392C867.991 163.472 861.315 186.147 856.878 207.993C848.529 249.108 845.491 302.021 842.633 351.792L842.627 351.892C842.425 355.412 842.224 358.916 842.021 362.399C838.825 417.472 835.387 467.76 826.576 504.199C822.553 520.836 818.122 531.318 814.277 537.238C812.66 533.406 810.819 527.888 809.031 520.21C802.72 493.109 800.455 455.444 798.03 412.648L797.892 410.203C795.644 370.482 793.134 326.131 785.091 291.593C781.006 274.053 774.634 254.9 763.2 239.374C750.582 222.239 730.929 208.776 704.635 208.776C667.311 208.776 645.136 232.163 633.231 254.431C622.938 273.683 617.164 297.546 612.843 315.401L612.284 317.708C607.312 338.204 603.69 352.078 598.937 361.395C598.144 359.77 597.243 357.739 596.247 355.215C590.4 340.398 586.308 320.932 581.151 296.398L581.144 296.367L581.132 296.306C580.207 291.909 579.248 287.349 578.239 282.624C572.215 254.419 564.29 220.093 549.315 192.414C533.386 162.97 505.979 135.252 461.29 133.515C416.76 131.785 385.657 156.668 365.309 184.39C345.675 211.139 332.268 245.249 321.907 274.724C318.085 285.596 314.709 295.696 311.571 305.087C305.411 323.518 300.165 339.217 294.249 352.654C293.754 353.779 293.274 354.838 292.81 355.835C290.887 351.64 288.68 346.282 285.75 339.166L284.875 337.042C279.61 324.266 271.552 304.887 257.694 289.194C241.9 271.311 219.448 258.97 189.694 258.97C162.186 258.97 136.194 251.392 116.38 243.202C106.629 239.17 98.7808 235.16 93.4966 232.236C90.8647 230.78 88.8984 229.61 87.6818 228.865C87.0744 228.493 86.6566 228.228 86.439 228.089L86.2808 227.987C67.9005 215.84 43.083 220.749 30.7875 238.991C18.4651 257.273 23.3856 282.023 41.7778 294.272L42.2424 294.578C42.4537 294.716 42.7211 294.889 43.0432 295.095C43.6874 295.507 44.5515 296.051 45.6246 296.709C47.7692 298.022 50.7589 299.793 54.5057 301.866C61.979 306.001 72.5803 311.402 85.5953 316.782C111.315 327.414 148.125 338.66 189.694 338.66C194.479 338.66 195.576 339.651 197.444 341.766C201.247 346.073 204.964 353.36 210.687 367.249C211.184 368.455 211.712 369.756 212.271 371.135C216.84 382.398 223.541 398.917 233.132 412.127C245.876 429.681 266.293 445.321 296.442 445.321C319.319 445.321 335.623 432.878 345.591 421.499C355.249 410.472 362.292 396.876 367.696 384.601C375.111 367.757 382.331 346.195 389.191 325.708C392.057 317.147 394.861 308.774 397.59 301.011C407.81 271.937 418.04 247.755 430.074 231.36C441.393 215.938 449.987 212.827 458.158 213.145C464.784 213.402 470.885 215.699 478.707 230.157C487.483 246.379 493.552 269.84 499.817 299.173C500.643 303.043 501.48 307.062 502.339 311.183C507.336 335.176 513.054 362.624 521.613 384.314C531.196 408.6 552.316 445.321 597.871 445.321C635.194 445.321 657.369 421.935 669.275 399.666C679.567 380.415 685.341 356.552 689.662 338.696L690.221 336.389C694.851 317.304 698.31 303.961 702.602 294.692C703.996 298.354 705.509 303.223 706.986 309.566C713.298 336.667 715.562 374.332 717.987 417.128L718.125 419.571C720.373 459.293 722.883 503.644 730.926 538.183C735.011 555.723 741.383 574.876 752.817 590.402C765.435 607.537 785.088 621 811.382 621C840.944 621 863.067 605.852 877.645 586.202C891.117 568.045 899.144 545.082 904.527 522.823C915.343 478.089 918.973 420.147 922.059 366.989C922.217 364.26 922.374 361.543 922.53 358.839C925.55 306.571 928.296 259.057 935.463 223.761C938.254 210.018 941.318 200.357 944.171 193.976C945.666 196.519 947.445 199.936 949.469 204.5C958.361 224.552 965.477 252.317 973.88 285.109L974.286 286.691C982.273 317.857 991.594 354.046 1005.05 382.322C1017.48 408.43 1041.89 445.321 1087.69 445.321Z" fill="#370C33"/>
</g>
<defs>
<filter id="filter0_diii" x="0" y="0" width="1673" height="661" filterUnits="userSpaceOnUse" color-interpolation-filters="sRGB">
<feFlood flood-opacity="0" result="BackgroundImageFix"/>
<feColorMatrix in="SourceAlpha" type="matrix" values="0 0 0 0 0 0 0 0 0 0 0 0 0 0 0 0 0 0 127 0" result="hardAlpha"/>
<feOffset dy="16"/>
<feGaussianBlur stdDeviation="12"/>
<feComposite in2="hardAlpha" operator="out"/>
<feColorMatrix type="matrix" values="0 0 0 0 1 0 0 0 0 1 0 0 0 0 1 0 0 0 0.05 0"/>
<feBlend mode="normal" in2="BackgroundImageFix" result="effect1_dropShadow"/>
<feBlend mode="normal" in="SourceGraphic" in2="effect1_dropShadow" result="shape"/>
<feColorMatrix in="SourceAlpha" type="matrix" values="0 0 0 0 0 0 0 0 0 0 0 0 0 0 0 0 0 0 127 0" result="hardAlpha"/>
<feOffset dy="16"/>
<feGaussianBlur stdDeviation="12"/>
<feComposite in2="hardAlpha" operator="arithmetic" k2="-1" k3="1"/>
<feColorMatrix type="matrix" values="0 0 0 0 1 0 0 0 0 1 0 0 0 0 1 0 0 0 0.1 0"/>
<feBlend mode="normal" in2="shape" result="effect2_innerShadow"/>
<feColorMatrix in="SourceAlpha" type="matrix" values="0 0 0 0 0 0 0 0 0 0 0 0 0 0 0 0 0 0 127 0" result="hardAlpha"/>
<feOffset dx="-16"/>
<feGaussianBlur stdDeviation="12"/>
<feComposite in2="hardAlpha" operator="arithmetic" k2="-1" k3="1"/>
<feColorMatrix type="matrix" values="0 0 0 0 1 0 0 0 0 1 0 0 0 0 1 0 0 0 0.1 0"/>
<feBlend mode="normal" in2="effect2_innerShadow" result="effect3_innerShadow"/>
<feColorMatrix in="SourceAlpha" type="matrix" values="0 0 0 0 0 0 0 0 0 0 0 0 0 0 0 0 0 0 127 0" result="hardAlpha"/>
<feOffset dx="4"/>
<feGaussianBlur stdDeviation="2"/>
<feComposite in2="hardAlpha" operator="arithmetic" k2="-1" k3="1"/>
<feColorMatrix type="matrix" values="0 0 0 0 0.929167 0 0 0 0 0.929167 0 0 0 0 0.929167 0 0 0 0.25 0"/>
<feBlend mode="normal" in2="effect3_innerShadow" result="effect4_innerShadow"/>
</filter>
</defs>
</svg>
