<svg width="133" height="127" viewBox="0 0 133 127" fill="none" xmlns="http://www.w3.org/2000/svg">

<style>
    path {
      fill: black;
    }
    @media (prefers-color-scheme: dark) {
      path {
        fill: white;
      }
    }
  </style>
<path d="M4.92732 67.4925C2.10702 67.4925 -0.199384 65.2036 0.0136676 62.3926C1.09026 48.1877 6.643 34.6377 15.9411 23.7268C26.3465 11.5165 40.7624 3.40948 56.6048 0.858909C72.4472 -1.69166 88.6805 1.48092 102.395 9.80804C114.65 17.2489 124.179 28.3709 129.663 41.5196C130.748 44.1216 129.277 47.0186 126.599 47.9038C123.922 48.7889 121.054 47.325 119.934 44.7378C115.236 33.8879 107.273 24.7143 97.093 18.5334C85.4528 11.4659 71.6749 8.77316 58.2288 10.9379C44.7827 13.1027 32.5475 19.9834 23.7159 30.3468C15.9923 39.4102 11.3136 50.619 10.2612 62.3947C10.0103 65.2027 7.74763 67.4925 4.92732 67.4925Z" />
<path d="M128.073 59.0561C130.893 59.0561 133.199 61.345 132.986 64.1561C131.91 78.361 126.357 91.9109 117.059 102.822C106.653 115.032 92.2376 123.139 76.3951 125.69C60.5527 128.24 44.3194 125.068 30.6047 116.741C18.3496 109.3 8.8214 98.1776 3.3373 85.0289C2.25203 82.4269 3.72282 79.5298 6.4005 78.6447C9.07817 77.7595 11.9457 79.2235 13.0659 81.8107C17.764 92.6606 25.727 101.834 35.9069 108.015C47.5471 115.083 61.325 117.775 74.7711 115.611C88.2172 113.446 100.452 106.565 109.284 96.2018C117.008 87.1385 121.686 75.9296 122.739 64.1539C122.99 61.346 125.252 59.0561 128.073 59.0561Z" />
<path fill-rule="evenodd" clip-rule="evenodd" d="M90.807 72.1812C89.8678 73.3726 88.3536 74.5974 86.2051 74.669C82.6288 74.7884 80.6086 72.1863 79.5788 70.2872C78.5867 68.4576 77.8716 66.1335 77.2819 64.2169C77.2476 64.1057 77.2139 63.9959 77.1805 63.8876C76.5023 61.6891 75.9432 59.9681 75.2639 58.7638C75.258 58.7533 75.2521 58.7429 75.2462 58.7326C75.1449 59.0691 75.04 59.4695 74.9357 59.9408C74.3402 62.6313 74.0174 66.3589 73.6967 70.4325C73.6763 70.6908 73.656 70.9506 73.6356 71.2115C73.3467 74.9019 73.0406 78.8133 72.4624 81.8569C72.1574 83.4627 71.7235 85.1414 71.0101 86.5035C70.3346 87.7932 68.8537 89.7775 66.1637 89.8239C63.9313 89.8625 62.363 88.5918 61.4277 87.3979C60.5241 86.2445 59.9092 84.8151 59.4573 83.4819C58.5435 80.7869 57.926 77.3241 57.4068 74.1746C57.3074 73.5718 57.2115 72.9798 57.1177 72.4012C56.8589 70.8036 56.6165 69.3078 56.3633 67.9678C55.9054 69.2718 55.2802 70.8852 54.3529 72.2302C53.2054 73.8948 51.29 75.5624 48.3935 75.5624C46.7717 75.5624 45.3711 74.9458 44.3039 73.9309C43.3339 73.0085 42.7585 71.8751 42.3885 70.9278C41.7762 69.3603 41.4078 67.3931 41.1105 65.8059C41.0643 65.5589 41.0197 65.321 40.9763 65.0953C40.5986 63.1345 40.2588 61.7717 39.7912 60.9035C39.6032 60.5546 39.473 60.4423 39.4474 60.4223C39.4415 60.4209 39.4313 60.4187 39.4159 60.4165C39.3916 60.413 39.3511 60.409 39.2918 60.409C38.9517 60.409 38.36 60.558 37.3754 61.6275C36.3697 62.7201 35.4045 64.2826 34.2827 66.213C34.1661 66.4137 34.047 66.6199 33.9255 66.8304C32.9778 68.4711 31.8838 70.3653 30.6933 71.8558C29.4077 73.4655 27.2743 75.5624 24.1553 75.5624C21.856 75.5624 20.1137 74.5325 18.9216 73.1747C17.8572 71.9624 17.2464 70.5096 16.8635 69.5121C16.6648 68.9942 16.526 68.6063 16.4144 68.2943C16.3813 68.2017 16.3506 68.1159 16.3214 68.0353L4.96267 68.0352C4.96259 68.0352 4.96255 68.0352 4.96257 64.4697C4.96259 60.9042 4.96263 60.9042 4.96271 60.9042L17.8237 60.9043C20.6803 60.9043 21.9735 63.2658 22.3658 64.0513C22.7059 64.7323 23.0528 65.6916 23.3023 66.3817C23.3841 66.6081 23.4555 66.8055 23.5127 66.9546C23.8012 67.7061 24.0213 68.1288 24.1882 68.3609C24.3542 68.2471 24.6644 67.9855 25.1299 67.4026C25.962 66.3608 26.7683 64.9692 27.776 63.2303C27.8898 63.0338 28.0063 62.8328 28.1256 62.6274C29.2051 60.7696 30.5277 58.5437 32.1374 56.795C33.7684 55.0232 36.1199 53.278 39.2918 53.278C40.8567 53.278 42.2935 53.7152 43.518 54.5702C44.6985 55.3946 45.5011 56.4797 46.0609 57.519C47.1236 59.4921 47.6185 61.9176 47.9705 63.7452C48.025 64.0281 48.0765 64.299 48.1259 64.5585C48.3716 65.8499 48.5636 66.8591 48.7978 67.6621C49.1123 67.0591 49.4296 66.2308 49.811 65.119C49.8655 64.9602 49.9224 64.7915 49.982 64.6152C50.3846 63.4232 50.9059 61.8798 51.5792 60.6611C52.3449 59.2751 54.0468 56.9922 57.1741 57.1449C59.7079 57.2686 60.9852 59.2888 61.464 60.1883C62.057 61.3023 62.4685 62.6597 62.7847 63.9415C63.3122 66.08 63.7484 68.7784 64.1692 71.3811C64.2582 71.9315 64.3464 72.4777 64.4348 73.0134C64.8223 75.3638 65.2134 77.538 65.6667 79.3402C66.0463 76.8664 66.2877 73.7927 66.5476 70.4825C66.5635 70.2799 66.5795 70.0764 66.5956 69.8721C66.9056 65.9357 67.2567 61.6719 67.9813 58.3981C68.3379 56.7871 68.8517 55.0823 69.6976 53.7098C70.5679 52.2978 72.2205 50.6246 74.8189 50.7046C78.2936 50.8117 80.3354 53.2522 81.4665 55.2575C82.5852 57.2409 83.3516 59.7257 83.9689 61.7268L83.9864 61.7835C84.6495 63.933 85.1632 65.5834 85.7668 66.7488C85.8673 66.5156 85.9746 66.2421 86.0869 65.9235C86.8063 63.8822 87.3674 61.0904 88.0032 57.9262L88.0238 57.8239C88.6312 54.8014 89.318 51.3943 90.3077 48.7626C90.801 47.4511 91.4745 46.0331 92.4653 44.9003C93.5208 43.6936 95.1352 42.6142 97.2798 42.6823C99.3355 42.7477 100.864 43.8186 101.877 45.0233C102.829 46.1562 103.461 47.5466 103.917 48.8248C104.783 51.2538 105.361 54.3348 105.872 57.0582C105.897 57.1928 105.922 57.3266 105.947 57.4593C106.516 60.4829 107.022 63.0442 107.712 64.8416C107.936 65.4254 108.132 65.7958 108.273 66.0166C109.195 65.9026 110.258 65.5817 111.522 65.0435C112.84 64.4823 114.176 63.7771 115.681 62.9831C115.895 62.8698 116.114 62.7547 116.336 62.638C119.591 60.9255 123.926 58.6656 128.533 58.9292L128.127 66.0486C125.81 65.916 123.219 67.073 119.648 68.9508C119.442 69.0591 119.233 69.1698 119.02 69.2821C117.545 70.0616 115.922 70.9191 114.309 71.6057C112.45 72.3974 110.346 73.08 108.112 73.1817C106.065 73.2748 104.431 72.3701 103.287 71.1658C102.236 70.0598 101.549 68.6665 101.063 67.4002C100.093 64.8741 99.4796 61.6109 98.9473 58.7788L98.9374 58.726C98.3707 55.7106 97.8819 53.11 97.2088 51.2223C97.1735 51.1234 97.1388 51.0297 97.1047 50.941C97.0621 51.0455 97.0185 51.1568 96.974 51.2752C96.2293 53.2551 95.6485 56.0381 95.0069 59.2305C94.9795 59.367 94.9519 59.5044 94.9242 59.6425C94.3414 62.547 93.6948 65.7689 92.8041 68.2961C92.3387 69.6167 91.7138 71.0309 90.807 72.1812ZM86.3805 67.6589C86.3804 67.6628 86.3616 67.6522 86.3247 67.6152C86.3623 67.6364 86.3807 67.6549 86.3805 67.6589ZM64.6231 83.328C64.6231 83.3277 64.6261 83.323 64.6323 83.3145C64.6263 83.324 64.6231 83.3282 64.6231 83.328ZM15.9044 67.0814C15.9047 67.0785 15.9213 67.1017 15.953 67.1601C15.9199 67.1136 15.904 67.0844 15.9044 67.0814ZM57.9815 63.841C57.9815 63.8412 57.9783 63.8456 57.9717 63.8532C57.9782 63.8445 57.9815 63.8407 57.9815 63.841ZM55.1432 63.4791C55.1102 63.4359 55.0945 63.4086 55.095 63.4058C55.0954 63.403 55.1119 63.4246 55.1432 63.4791Z" />
</svg>
